<svg version="1.1" id="Layer_1" xmlns="http://www.w3.org/2000/svg" xmlns:xlink="http://www.w3.org/1999/xlink" x="0px" y="0px"
	 width="100%" viewBox="0 0 312 360" enable-background="new 0 0 312 360" xml:space="preserve">
<path fill="#010101" opacity="1.000000" stroke="none" 
	d="
M158.000000,361.000000 
	C157.555664,361.000000 157.111328,361.000000 156.243515,360.666412 
	C127.339180,343.875916 98.843063,327.445374 70.382248,310.953857 
	C47.542942,297.719727 24.746483,284.411713 1.958587,270.659729 
	C1.967021,210.407745 1.947874,150.632538 2.131775,90.586533 
	C42.767570,66.980766 83.219223,43.678459 123.620522,20.289190 
	C134.492310,13.995262 145.211029,7.436950 156.000000,1.000000 
	C156.444336,1.000000 156.888672,1.000000 157.798584,1.317296 
	C208.557343,30.692175 258.847565,59.754837 309.162384,88.774902 
	C310.299011,89.430473 311.714569,89.602448 313.000000,90.000000 
	C313.000000,90.750000 313.000000,91.500000 312.703430,92.919327 
	C312.271790,94.565392 312.018860,95.542107 312.018524,96.518898 
	C311.999451,152.618729 311.994141,208.718552 312.042999,264.818359 
	C312.044220,266.212494 312.667084,267.606140 313.000000,269.000000 
	C313.000000,269.750000 313.000000,270.500000 312.704437,271.351135 
	C271.195923,295.209839 229.967758,318.941132 188.780640,342.743408 
	C178.452805,348.711945 168.256668,354.908356 158.000000,361.000000 
M101.871063,172.500534 
	C101.871063,186.745331 101.871063,200.990112 101.871063,215.596802 
	C115.509514,215.596802 128.476120,215.646927 141.440384,215.495468 
	C142.409821,215.484161 143.362411,214.030823 144.322815,213.247833 
	C144.014862,212.785706 143.706909,212.323563 143.398941,211.861420 
	C130.982803,211.861420 118.566658,211.861420 106.277199,211.861420 
	C106.277199,202.710892 106.277199,193.990814 106.277199,184.945953 
	C118.059166,184.945953 129.487625,184.945953 140.916092,184.945953 
	C141.122940,184.414139 141.329773,183.882309 141.536621,183.350494 
	C140.288406,182.755707 139.046829,181.661453 137.790955,181.644821 
	C127.328018,181.506180 116.862465,181.566132 106.281799,181.566132 
	C106.281799,173.194122 106.281799,165.164963 106.281799,156.977722 
	C117.628448,156.977722 128.611755,157.032974 139.592957,156.906570 
	C140.939011,156.891083 142.273880,155.903000 143.613922,155.365646 
	C142.214340,154.693115 140.831924,153.485367 139.412216,153.439789 
	C132.923187,153.231461 126.423706,153.349213 119.927979,153.349472 
	C113.996689,153.349701 108.065399,153.349518 101.871071,153.349518 
	C101.871071,159.866760 101.871071,165.683807 101.871063,172.500534 
M176.221420,173.709106 
	C174.651489,175.791931 173.081573,177.874756 171.242096,180.315186 
	C169.973694,178.684097 168.937927,177.432159 167.988525,176.117844 
	C163.116501,169.373444 158.370209,162.533981 153.325226,155.922150 
	C152.266464,154.534592 150.137344,153.963760 148.501450,153.016586 
	C148.235703,153.461853 147.969971,153.907135 147.704224,154.352417 
	C154.653595,164.053543 161.602966,173.754654 168.653183,183.596542 
	C161.052368,194.104492 153.541626,204.487915 146.030869,214.871353 
	C146.465927,215.330750 146.900970,215.790131 147.336029,216.249527 
	C148.978638,215.044769 151.019638,214.141495 152.197525,212.585052 
	C158.592712,204.134628 164.774811,195.522934 171.199066,186.735901 
	C177.760300,195.789047 183.916626,204.465302 190.325150,212.951096 
	C191.422989,214.404785 193.596924,215.045792 195.273773,216.062225 
	C195.598862,215.610428 195.923950,215.158630 196.249039,214.706848 
	C188.808609,204.376633 181.368164,194.046432 173.887772,183.660767 
	C181.302673,172.333755 189.386948,161.669525 196.486710,150.391220 
	C195.814804,149.927567 195.142899,149.463913 194.470993,149.000259 
	C188.539124,157.050232 182.607239,165.100189 176.221420,173.709106 
M89.868622,210.674805 
	C93.447227,215.646545 97.025841,220.618301 100.604446,225.590042 
	C100.469696,223.031540 99.927399,220.894745 98.775551,219.163483 
	C84.774796,198.119995 70.738716,177.099152 56.512962,156.207825 
	C55.386364,154.553360 52.782104,153.905090 50.240990,152.426315 
	C50.240990,174.491608 50.240990,194.895767 50.240990,215.244904 
	C54.428719,216.381561 53.978924,213.682693 53.982216,211.341782 
	C54.003044,196.528610 54.033932,181.715439 54.060112,166.902267 
	C54.064037,164.681320 54.060661,162.460388 54.060661,160.239441 
	C54.410820,160.173874 54.760979,160.108292 55.111137,160.042725 
	C66.558243,176.724091 78.005341,193.405472 89.868622,210.674805 
M218.220840,156.993362 
	C218.792465,158.457718 219.850952,159.918671 219.861237,161.386948 
	C219.978714,178.184219 219.967010,194.982727 219.906891,211.780609 
	C219.896988,214.549393 220.231277,216.452652 224.059570,215.004684 
	C224.059570,195.769119 224.059570,176.555923 224.059570,156.975098 
	C230.572235,156.975098 236.689606,157.047531 242.801880,156.903748 
	C243.819321,156.879822 244.814606,155.914398 245.820129,155.384064 
	C244.933502,154.706192 244.051926,153.445343 243.159470,153.437607 
	C229.023560,153.314713 214.885742,153.305756 200.750351,153.456299 
	C199.781143,153.466614 198.827606,154.945374 197.866776,155.741226 
	C198.195984,156.153885 198.525192,156.566544 198.854401,156.979202 
	C204.991364,156.979202 211.128326,156.979202 218.220840,156.993362 
M265.280823,203.720825 
	C264.149292,202.936096 263.017761,202.151367 261.886230,201.366638 
	C262.000427,200.844543 262.114624,200.322449 262.228790,199.800339 
	C264.518738,200.007431 266.808655,200.214508 269.098602,200.421600 
	C269.180084,199.972122 269.261566,199.522644 269.343048,199.073166 
	C267.104095,198.680191 264.862579,198.010849 262.627472,198.031494 
	C261.744446,198.039627 260.262421,199.480896 260.100006,200.445831 
	C259.057007,206.641541 266.317413,203.894409 268.713379,208.899551 
	C265.312317,208.531555 262.861969,208.266449 260.621399,208.024017 
	C261.485474,210.876877 262.728699,212.030502 265.813568,211.164124 
	C267.484711,210.694794 268.727386,208.699783 270.163330,207.392990 
	C268.771027,206.198288 267.378723,205.003601 265.280823,203.720825 
M251.115341,207.992645 
	C250.497772,208.396729 249.293121,209.018356 249.350220,209.172470 
	C250.291122,211.711945 255.547379,212.410950 256.248383,209.917984 
	C257.317596,206.115662 257.031677,201.932266 257.321167,197.910675 
	C256.530701,197.856949 255.740250,197.803238 254.949799,197.749512 
	C254.949799,200.597214 254.946045,203.444916 254.950974,206.292618 
	C254.955139,208.698914 254.079193,209.787781 251.115341,207.992645 
M200.412094,141.502838 
	C199.548996,142.860260 198.685898,144.217667 197.822800,145.575073 
	C198.516586,145.841278 199.210358,146.107483 199.904144,146.373703 
	C200.278305,144.616486 200.652481,142.859283 200.412094,141.502838 
z"/>
<path fill="#FEFEFE" opacity="1.000000" stroke="none" 
	d="
M1.931005,271.136475 
	C24.746483,284.411713 47.542942,297.719727 70.382248,310.953857 
	C98.843063,327.445374 127.339180,343.875916 155.910019,360.666412 
	C104.425743,361.000000 52.851482,361.000000 1.000000,361.000000 
	C1.000000,331.313019 1.000000,301.625153 1.220203,271.588379 
	C1.603939,271.205109 1.767472,271.170807 1.931005,271.136475 
z"/>
<path fill="#FEFEFE" opacity="1.000000" stroke="none" 
	d="
M155.531342,1.000000 
	C145.211029,7.436950 134.492310,13.995262 123.620522,20.289190 
	C83.219223,43.678459 42.767570,66.980766 1.885978,90.533569 
	C1.291421,90.834267 1.145711,90.917137 1.000000,91.000000 
	C1.000000,61.053658 1.000000,31.107317 1.000000,1.000000 
	C52.354115,1.000000 103.708397,1.000000 155.531342,1.000000 
z"/>
<path fill="#FEFEFE" opacity="1.000000" stroke="none" 
	d="
M158.468658,361.000000 
	C168.256668,354.908356 178.452805,348.711945 188.780640,342.743408 
	C229.967758,318.941132 271.195923,295.209839 312.704437,271.726135 
	C313.000000,301.613373 313.000000,331.226776 313.000000,361.000000 
	C261.645874,361.000000 210.291595,361.000000 158.468658,361.000000 
z"/>
<path fill="#FEFEFE" opacity="1.000000" stroke="none" 
	d="
M313.000000,89.531342 
	C311.714569,89.602448 310.299011,89.430473 309.162384,88.774902 
	C258.847565,59.754837 208.557343,30.692175 158.132080,1.317296 
	C209.573868,1.000000 261.147736,1.000000 313.000000,1.000000 
	C313.000000,30.353642 313.000000,59.708160 313.000000,89.531342 
z"/>
<path fill="#2A2A2A" opacity="1.000000" stroke="none" 
	d="
M1.000000,91.468658 
	C1.145711,90.917137 1.291421,90.834267 1.682929,90.804367 
	C1.947874,150.632538 1.967021,210.407745 1.958587,270.659729 
	C1.767472,271.170807 1.603939,271.205109 1.220203,271.119720 
	C1.000000,211.312439 1.000000,151.624878 1.000000,91.468658 
z"/>
<path fill="#0C0C0C" opacity="1.000000" stroke="none" 
	d="
M313.000000,268.531342 
	C312.667084,267.606140 312.044220,266.212494 312.042999,264.818359 
	C311.994141,208.718552 311.999451,152.618729 312.018524,96.518898 
	C312.018860,95.542107 312.271790,94.565392 312.703430,93.294327 
	C313.000000,151.354233 313.000000,209.708450 313.000000,268.531342 
z"/>
<path fill="#E0E0E0" opacity="1.000000" stroke="none" 
	d="
M101.871063,172.000702 
	C101.871071,165.683807 101.871071,159.866760 101.871071,153.349518 
	C108.065399,153.349518 113.996689,153.349701 119.927979,153.349472 
	C126.423706,153.349213 132.923187,153.231461 139.412216,153.439789 
	C140.831924,153.485367 142.214340,154.693115 143.613922,155.365646 
	C142.273880,155.903000 140.939011,156.891083 139.592957,156.906570 
	C128.611755,157.032974 117.628448,156.977722 106.281799,156.977722 
	C106.281799,165.164963 106.281799,173.194122 106.281799,181.566132 
	C116.862465,181.566132 127.328018,181.506180 137.790955,181.644821 
	C139.046829,181.661453 140.288406,182.755707 141.536621,183.350494 
	C141.329773,183.882309 141.122940,184.414139 140.916092,184.945953 
	C129.487625,184.945953 118.059166,184.945953 106.277199,184.945953 
	C106.277199,193.990814 106.277199,202.710892 106.277199,211.861420 
	C118.566658,211.861420 130.982803,211.861420 143.398941,211.861420 
	C143.706909,212.323563 144.014862,212.785706 144.322815,213.247833 
	C143.362411,214.030823 142.409821,215.484161 141.440384,215.495468 
	C128.476120,215.646927 115.509514,215.596802 101.871063,215.596802 
	C101.871063,200.990112 101.871063,186.745331 101.871063,172.000702 
z"/>
<path fill="#E5E5E5" opacity="1.000000" stroke="none" 
	d="
M176.448395,173.429626 
	C182.607239,165.100189 188.539124,157.050232 194.470993,149.000259 
	C195.142899,149.463913 195.814804,149.927567 196.486710,150.391220 
	C189.386948,161.669525 181.302673,172.333755 173.887772,183.660767 
	C181.368164,194.046432 188.808609,204.376633 196.249039,214.706848 
	C195.923950,215.158630 195.598862,215.610428 195.273773,216.062225 
	C193.596924,215.045792 191.422989,214.404785 190.325150,212.951096 
	C183.916626,204.465302 177.760300,195.789047 171.199066,186.735901 
	C164.774811,195.522934 158.592712,204.134628 152.197525,212.585052 
	C151.019638,214.141495 148.978638,215.044769 147.336029,216.249527 
	C146.900970,215.790131 146.465927,215.330750 146.030869,214.871353 
	C153.541626,204.487915 161.052368,194.104492 168.653183,183.596542 
	C161.602966,173.754654 154.653595,164.053543 147.704224,154.352417 
	C147.969971,153.907135 148.235703,153.461853 148.501450,153.016586 
	C150.137344,153.963760 152.266464,154.534592 153.325226,155.922150 
	C158.370209,162.533981 163.116501,169.373444 167.988525,176.117844 
	C168.937927,177.432159 169.973694,178.684097 171.242096,180.315186 
	C173.081573,177.874756 174.651489,175.791931 176.448395,173.429626 
z"/>
<path fill="#E7E7E7" opacity="1.000000" stroke="none" 
	d="
M89.660530,210.380829 
	C78.005341,193.405472 66.558243,176.724091 55.111137,160.042725 
	C54.760979,160.108292 54.410820,160.173874 54.060661,160.239441 
	C54.060661,162.460388 54.064037,164.681320 54.060112,166.902267 
	C54.033932,181.715439 54.003044,196.528610 53.982216,211.341782 
	C53.978924,213.682693 54.428719,216.381561 50.240990,215.244904 
	C50.240990,194.895767 50.240990,174.491608 50.240990,152.426315 
	C52.782104,153.905090 55.386364,154.553360 56.512962,156.207825 
	C70.738716,177.099152 84.774796,198.119995 98.775551,219.163483 
	C99.927399,220.894745 100.469696,223.031540 100.604446,225.590042 
	C97.025841,220.618301 93.447227,215.646545 89.660530,210.380829 
z"/>
<path fill="#DFDFDF" opacity="1.000000" stroke="none" 
	d="
M217.743073,156.986282 
	C211.128326,156.979202 204.991364,156.979202 198.854401,156.979202 
	C198.525192,156.566544 198.195984,156.153885 197.866776,155.741226 
	C198.827606,154.945374 199.781143,153.466614 200.750351,153.456299 
	C214.885742,153.305756 229.023560,153.314713 243.159470,153.437607 
	C244.051926,153.445343 244.933502,154.706192 245.820129,155.384064 
	C244.814606,155.914398 243.819321,156.879822 242.801880,156.903748 
	C236.689606,157.047531 230.572235,156.975098 224.059570,156.975098 
	C224.059570,176.555923 224.059570,195.769119 224.059570,215.004684 
	C220.231277,216.452652 219.896988,214.549393 219.906891,211.780609 
	C219.967010,194.982727 219.978714,178.184219 219.861237,161.386948 
	C219.850952,159.918671 218.792465,158.457718 217.743073,156.986282 
z"/>
<path fill="#E0E0E0" opacity="1.000000" stroke="none" 
	d="
M265.633606,203.764862 
	C267.378723,205.003601 268.771027,206.198288 270.163330,207.392990 
	C268.727386,208.699783 267.484711,210.694794 265.813568,211.164124 
	C262.728699,212.030502 261.485474,210.876877 260.621399,208.024017 
	C262.861969,208.266449 265.312317,208.531555 268.713379,208.899551 
	C266.317413,203.894409 259.057007,206.641541 260.100006,200.445831 
	C260.262421,199.480896 261.744446,198.039627 262.627472,198.031494 
	C264.862579,198.010849 267.104095,198.680191 269.343048,199.073166 
	C269.261566,199.522644 269.180084,199.972122 269.098602,200.421600 
	C266.808655,200.214508 264.518738,200.007431 262.228790,199.800339 
	C262.114624,200.322449 262.000427,200.844543 261.886230,201.366638 
	C263.017761,202.151367 264.149292,202.936096 265.633606,203.764862 
z"/>
<path fill="#D8D8D8" opacity="1.000000" stroke="none" 
	d="
M251.368225,208.267273 
	C254.079193,209.787781 254.955139,208.698914 254.950974,206.292618 
	C254.946045,203.444916 254.949799,200.597214 254.949799,197.749512 
	C255.740250,197.803238 256.530701,197.856949 257.321167,197.910675 
	C257.031677,201.932266 257.317596,206.115662 256.248383,209.917984 
	C255.547379,212.410950 250.291122,211.711945 249.350220,209.172470 
	C249.293121,209.018356 250.497772,208.396729 251.368225,208.267273 
z"/>
<path fill="#D2D2D2" opacity="1.000000" stroke="none" 
	d="
M200.719360,141.302460 
	C200.652481,142.859283 200.278305,144.616486 199.904144,146.373703 
	C199.210358,146.107483 198.516586,145.841278 197.822800,145.575073 
	C198.685898,144.217667 199.548996,142.860260 200.719360,141.302460 
z"/>
</svg>