<svg version="1.1" id="Layer_1" xmlns="http://www.w3.org/2000/svg" xmlns:xlink="http://www.w3.org/1999/xlink" x="0px" y="0px"
	 width="100%" viewBox="0 0 512 512" enable-background="new 0 0 512 512" xml:space="preserve">
<path fill="#FDFEFF" opacity="1.000000" stroke="none" 
	d="
M273.000000,513.000000 
	C182.022079,513.000000 91.544159,513.000000 1.033118,513.000000 
	C1.033118,342.397064 1.033118,171.794098 1.033118,1.095572 
	C171.561279,1.095572 342.122620,1.095572 512.841980,1.095572 
	C512.841980,171.666550 512.841980,342.333252 512.841980,513.000000 
	C433.127411,513.000000 353.313690,513.000000 273.000000,513.000000 
M241.357376,508.576721 
	C241.916779,506.930481 242.968323,505.282379 242.962097,503.638275 
	C242.861938,477.157837 242.560104,450.678070 242.482605,424.197662 
	C242.468063,419.228973 242.882126,414.198822 243.721039,409.303711 
	C244.680267,403.706665 249.085144,402.059357 252.933304,405.057312 
	C263.896332,413.598206 274.548950,422.662354 286.185211,430.188568 
	C311.207367,446.372620 338.237091,456.407257 368.810150,453.730316 
	C386.218384,452.206085 402.902649,447.948456 418.410797,440.016663 
	C433.588562,432.253876 446.575989,421.395020 457.469391,408.294769 
	C464.412689,399.944855 470.818573,391.106262 474.842743,380.394196 
	C466.913086,377.920746 459.300507,375.604828 451.725433,373.172119 
	C431.366394,366.633820 411.025146,360.040405 390.673553,353.478912 
	C374.107025,348.137756 357.497101,342.925354 341.014801,337.336090 
	C338.910248,336.622406 336.173401,334.051941 336.067017,332.206848 
	C335.959167,330.336700 338.370422,327.708954 340.340027,326.440399 
	C347.713501,321.691284 355.661774,317.799500 362.847473,312.800049 
	C392.439606,292.211273 410.063538,263.370667 418.111786,228.773956 
	C426.510925,192.669067 422.917450,157.067276 410.202454,122.428452 
	C400.046265,94.760483 384.201965,70.783356 362.300751,50.856579 
	C340.736786,31.236614 315.850433,17.815300 287.644653,10.782248 
	C249.472946,1.264206 211.398544,2.972491 173.968857,14.343475 
	C144.799377,23.205040 119.186409,38.771358 97.628044,60.417591 
	C77.052170,81.077316 61.272144,105.061050 51.564449,132.647858 
	C46.952377,145.754211 42.649529,159.116455 39.920197,172.706909 
	C34.623188,199.082932 34.228355,225.804871 36.482918,252.645172 
	C38.844372,280.757965 43.902161,308.334778 53.248940,334.881317 
	C65.794899,370.514069 84.169647,402.909241 109.547813,431.232117 
	C134.843643,459.463104 164.140686,482.120575 198.929581,497.380402 
	C212.180405,503.192749 225.811783,507.901520 241.357376,508.576721 
z"/>
<path fill="#000102" opacity="1.000000" stroke="none" 
	d="
M240.921112,508.582336 
	C225.811783,507.901520 212.180405,503.192749 198.929581,497.380402 
	C164.140686,482.120575 134.843643,459.463104 109.547813,431.232117 
	C84.169647,402.909241 65.794899,370.514069 53.248940,334.881317 
	C43.902161,308.334778 38.844372,280.757965 36.482918,252.645172 
	C34.228355,225.804871 34.623188,199.082932 39.920197,172.706909 
	C42.649529,159.116455 46.952377,145.754211 51.564449,132.647858 
	C61.272144,105.061050 77.052170,81.077316 97.628044,60.417591 
	C119.186409,38.771358 144.799377,23.205040 173.968857,14.343475 
	C211.398544,2.972491 249.472946,1.264206 287.644653,10.782248 
	C315.850433,17.815300 340.736786,31.236614 362.300751,50.856579 
	C384.201965,70.783356 400.046265,94.760483 410.202454,122.428452 
	C422.917450,157.067276 426.510925,192.669067 418.111786,228.773956 
	C410.063538,263.370667 392.439606,292.211273 362.847473,312.800049 
	C355.661774,317.799500 347.713501,321.691284 340.340027,326.440399 
	C338.370422,327.708954 335.959167,330.336700 336.067017,332.206848 
	C336.173401,334.051941 338.910248,336.622406 341.014801,337.336090 
	C357.497101,342.925354 374.107025,348.137756 390.673553,353.478912 
	C411.025146,360.040405 431.366394,366.633820 451.725433,373.172119 
	C459.300507,375.604828 466.913086,377.920746 474.842743,380.394196 
	C470.818573,391.106262 464.412689,399.944855 457.469391,408.294769 
	C446.575989,421.395020 433.588562,432.253876 418.410797,440.016663 
	C402.902649,447.948456 386.218384,452.206085 368.810150,453.730316 
	C338.237091,456.407257 311.207367,446.372620 286.185211,430.188568 
	C274.548950,422.662354 263.896332,413.598206 252.933304,405.057312 
	C249.085144,402.059357 244.680267,403.706665 243.721039,409.303711 
	C242.882126,414.198822 242.468063,419.228973 242.482605,424.197662 
	C242.560104,450.678070 242.861938,477.157837 242.962097,503.638275 
	C242.968323,505.282379 241.916779,506.930481 240.921112,508.582336 
M292.033478,130.434586 
	C287.470734,127.142792 283.168152,123.392487 278.303711,120.632385 
	C242.275879,100.190033 194.387863,109.752716 170.211823,145.453674 
	C155.037735,167.861389 151.836502,191.990280 159.922729,217.150146 
	C168.722153,244.529114 187.638626,262.521240 215.500351,270.642059 
	C255.471344,282.292419 299.111450,260.933807 313.859131,221.104156 
	C326.552673,186.822372 318.475281,156.543594 292.033478,130.434586 
z"/>
<path fill="#FCFDFF" opacity="1.000000" stroke="none" 
	d="
M292.287048,130.686035 
	C318.475281,156.543594 326.552673,186.822372 313.859131,221.104156 
	C299.111450,260.933807 255.471344,282.292419 215.500351,270.642059 
	C187.638626,262.521240 168.722153,244.529114 159.922729,217.150146 
	C151.836502,191.990280 155.037735,167.861389 170.211823,145.453674 
	C194.387863,109.752716 242.275879,100.190033 278.303711,120.632385 
	C283.168152,123.392487 287.470734,127.142792 292.287048,130.686035 
z"/>
</svg>